<?xml version="1.0" encoding="UTF-8" standalone="no"?>
<!-- Created with Inkscape (http://www.inkscape.org/) -->

<svg
   xmlns:dc="http://purl.org/dc/elements/1.1/"
   xmlns:cc="http://creativecommons.org/ns#"
   xmlns:rdf="http://www.w3.org/1999/02/22-rdf-syntax-ns#"
   xmlns:svg="http://www.w3.org/2000/svg"
   xmlns="http://www.w3.org/2000/svg"
   xmlns:sodipodi="http://sodipodi.sourceforge.net/DTD/sodipodi-0.dtd"
   xmlns:inkscape="http://www.inkscape.org/namespaces/inkscape"
   width="300"
   height="40"
   viewBox="0 0 79.375 10.583333"
   version="1.1"
   id="svg8"
   inkscape:version="0.92.0 r15299"
   sodipodi:docname="curtain6.svg">
  <defs
     id="defs2" />
  <sodipodi:namedview
     id="base"
     pagecolor="#ffffff"
     bordercolor="#666666"
     borderopacity="1.0"
     inkscape:pageopacity="0.0"
     inkscape:pageshadow="2"
     inkscape:zoom="2.7987047"
     inkscape:cx="55.902804"
     inkscape:cy="65.370091"
     inkscape:document-units="mm"
     inkscape:current-layer="layer1"
     showgrid="false"
     inkscape:window-width="1920"
     inkscape:window-height="1017"
     inkscape:window-x="-8"
     inkscape:window-y="-8"
     inkscape:window-maximized="1"
     units="px"
     inkscape:showpageshadow="false"
     height="26mm" />
  <metadata
     id="metadata5">
    <rdf:RDF>
      <cc:Work
         rdf:about="">
        <dc:format>image/svg+xml</dc:format>
        <dc:type
           rdf:resource="http://purl.org/dc/dcmitype/StillImage" />
        <dc:title></dc:title>
      </cc:Work>
    </rdf:RDF>
  </metadata>
  <g
     inkscape:label="Layer 1"
     inkscape:groupmode="layer"
     id="layer1"
     transform="translate(0,-286.41663)">
    <path
       style="fill:#3aa6f1;fill-opacity:1;stroke-width:0.3410393"
       d="m 0,286.41663 h 79.375 v 1.803 c 0,0 -11.875948,2.0067 -17.86398,2.27593 -15.248651,0.68559 -30.872764,-5.47475 -45.757763,-1.69306 -1.050317,0.26684 -2.644472,0.32779 -2.868845,1.66862 -0.336854,2.01302 3.131344,6.22332 1.217348,6.51817 -2.36751,0.36473 -1.327343,-8.74174 -4.1646111,-8.40198 -0.9140937,0.10946 -0.9596791,1.49391 -0.8037129,2.96382 0.1403305,1.32255 0.4827032,2.58338 -0.2996791,2.5681 -1.4871224,-0.029 0.2681066,-3.79218 -0.8238163,-4.92677 C 6.0383776,287.14386 0,288.21963 0,288.21963 Z"
       id="rect8"
       inkscape:connector-curvature="0"
       sodipodi:nodetypes="cccaassassacc" />
  </g>
</svg>
