<?xml version="1.0" encoding="UTF-8" standalone="no"?>
<!-- Created with Inkscape (http://www.inkscape.org/) -->

<svg
   xmlns:dc="http://purl.org/dc/elements/1.1/"
   xmlns:cc="http://creativecommons.org/ns#"
   xmlns:rdf="http://www.w3.org/1999/02/22-rdf-syntax-ns#"
   xmlns:svg="http://www.w3.org/2000/svg"
   xmlns="http://www.w3.org/2000/svg"
   xmlns:sodipodi="http://sodipodi.sourceforge.net/DTD/sodipodi-0.dtd"
   xmlns:inkscape="http://www.inkscape.org/namespaces/inkscape"
   width="397"
   height="40"
   viewBox="0 0 105.03958 10.583333"
   version="1.1"
   id="svg8"
   inkscape:version="0.92.0 r15299"
   sodipodi:docname="curtain9.svg">
  <defs
     id="defs2" />
  <sodipodi:namedview
     id="base"
     pagecolor="#ffffff"
     bordercolor="#666666"
     borderopacity="1.0"
     inkscape:pageopacity="0.0"
     inkscape:pageshadow="2"
     inkscape:zoom="2.8284271"
     inkscape:cx="198.97339"
     inkscape:cy="37.82215"
     inkscape:document-units="mm"
     inkscape:current-layer="layer1"
     showgrid="false"
     inkscape:window-width="1920"
     inkscape:window-height="1017"
     inkscape:window-x="-8"
     inkscape:window-y="-8"
     inkscape:window-maximized="1"
     units="px"
     inkscape:showpageshadow="false"
     height="26mm"
     showguides="false" />
  <metadata
     id="metadata5">
    <rdf:RDF>
      <cc:Work
         rdf:about="">
        <dc:format>image/svg+xml</dc:format>
        <dc:type
           rdf:resource="http://purl.org/dc/dcmitype/StillImage" />
        <dc:title></dc:title>
      </cc:Work>
    </rdf:RDF>
  </metadata>
  <g
     inkscape:label="Layer 1"
     inkscape:groupmode="layer"
     id="layer1"
     transform="translate(0,-286.41663)">
    <path
       style="fill:#3aa6f1;fill-opacity:1;stroke-width:0.26424247"
       d="m 0,286.41663 v 3.01576 h 33.129694 c 0.464212,0 0.851927,-0.33352 1.123581,-0.68326 0.125278,-0.17613 0.229465,-0.33886 0.384522,-0.50911 0.330354,-0.30684 0.774792,-0.49426 1.26571,-0.49426 h 0.03928 c 0.975496,0 1.768959,0.73994 1.845073,1.68663 h 0.0062 v 5.73189 c 0,1.01697 0.826126,1.83568 1.85231,1.83568 h 0.03929 c 1.026175,0 1.852311,-0.81871 1.852311,-1.83568 v -5.73189 -0.52448 -0.0164 c 0,-1.01697 0.826125,-1.83568 1.85231,-1.83568 h 0.03928 c 1.026175,0 1.85231,0.81871 1.85231,1.83568 v 0.0164 0.52448 2.58501 c 0,1.01697 0.826126,1.83568 1.852312,1.83568 h 0.03927 c 1.026175,0 1.852311,-0.81871 1.852311,-1.83568 v -2.64135 c 0.0446,-0.97708 0.849803,-1.75117 1.847143,-1.75117 h 0.03927 c 0.548187,0 1.037586,0.2352 1.375796,0.60797 0.111279,0.12517 0.206848,0.28054 0.283221,0.41436 0.236852,0.37453 0.58695,0.78518 1.043475,0.78518 h 44.312812 c 0.786108,0.11414 1.407937,0.71262 1.548416,1.4833 v 3.93923 c 0,1.01697 0.826133,1.83568 1.852323,1.83568 h 0.0393 c 1.02618,0 1.85232,-0.81871 1.85232,-1.83568 v -3.96433 c 0.15339,-0.76754 0.78685,-1.3585 1.57942,-1.4582 h 0.24032 v -3.01576 z"
       id="rect10"
       inkscape:connector-curvature="0" />
    <path
       style="fill:#000000;fill-opacity:1;stroke-width:0.20578708"
       d="m 25.088908,265.07065 c 1.026055,0 1.852084,0.82603 1.852084,1.85208 v -1.85208 z"
       id="rect11-7-6-4-7"
       inkscape:connector-curvature="0"
       sodipodi:nodetypes="cccc" />
    <path
       style="fill:#000000;fill-opacity:1;stroke-width:0.20578708"
       d="m 17.619881,265.32777 v 1.85208 c 0,-1.02605 0.826029,-1.85208 1.852083,-1.85208 z"
       id="rect11-7-6-4-1"
       inkscape:connector-curvature="0"
       sodipodi:nodetypes="cccc" />
    <path
       style="fill:#3aa6f1;fill-opacity:1;stroke-width:0.20578708"
       d="m 69.203157,259.63717 h 0.0393 c 1.02605,0 1.85208,0.82603 1.85208,1.85209 v 5.91456 c 0,1.02605 -0.82603,1.85208 -1.85208,1.85208 h -0.0393 c -1.02606,0 -1.85208,-0.82603 -1.85208,-1.85208 v -5.91456 c 0,-1.02606 0.82602,-1.85209 1.85208,-1.85209 z"
       id="rect11-7-6-2-1"
       inkscape:connector-curvature="0" />
    <path
       style="fill:#000000;fill-opacity:1;stroke-width:0.20578708"
       d="m 17.575154,279.58449 v 1.85208 h 1.852083 c -1.026054,0 -1.852083,-0.82603 -1.852083,-1.85208 z"
       id="rect11-7-6-4-3-8"
       inkscape:connector-curvature="0"
       sodipodi:nodetypes="cccc" />
    <path
       style="fill:#000000;fill-opacity:1;stroke-width:0.20578708"
       d="m 37.590471,279.4522 c 0,1.02605 -0.82603,1.85208 -1.852084,1.85208 h 1.852084 z"
       id="rect11-7-6-4-3-9"
       inkscape:connector-curvature="0"
       sodipodi:nodetypes="cccc" />
    <path
       style="fill:#3aa6f1;fill-opacity:1;stroke-width:0.20578706"
       d="m 58.154398,264.94616 v 3.13728 c 0,1.02605 0.826024,1.85208 1.852083,1.85208 h 0.03928 c 1.026049,0 1.852083,-0.82603 1.852083,-1.85208 v -3.13728 z"
       id="rect11-7-6-2-1-0"
       inkscape:connector-curvature="0" />
  </g>
</svg>
