<?xml version="1.0" encoding="UTF-8" standalone="no"?>
<!-- Created with Inkscape (http://www.inkscape.org/) -->

<svg
   xmlns:dc="http://purl.org/dc/elements/1.1/"
   xmlns:cc="http://creativecommons.org/ns#"
   xmlns:rdf="http://www.w3.org/1999/02/22-rdf-syntax-ns#"
   xmlns:svg="http://www.w3.org/2000/svg"
   xmlns="http://www.w3.org/2000/svg"
   xmlns:sodipodi="http://sodipodi.sourceforge.net/DTD/sodipodi-0.dtd"
   xmlns:inkscape="http://www.inkscape.org/namespaces/inkscape"
   width="468"
   height="94"
   viewBox="0 0 123.825 24.870834"
   version="1.1"
   id="svg8"
   inkscape:version="0.92.0 r15299"
   sodipodi:docname="shape14.svg">
  <defs
     id="defs2" />
  <sodipodi:namedview
     id="base"
     pagecolor="#ffffff"
     bordercolor="#666666"
     borderopacity="1.0"
     inkscape:pageopacity="0.0"
     inkscape:pageshadow="2"
     inkscape:zoom="1.4"
     inkscape:cx="-83.430223"
     inkscape:cy="226.35298"
     inkscape:document-units="mm"
     inkscape:current-layer="layer1"
     showgrid="false"
     inkscape:window-width="1920"
     inkscape:window-height="1017"
     inkscape:window-x="-8"
     inkscape:window-y="-8"
     inkscape:window-maximized="1"
     units="px"
     inkscape:showpageshadow="false" />
  <metadata
     id="metadata5">
    <rdf:RDF>
      <cc:Work
         rdf:about="">
        <dc:format>image/svg+xml</dc:format>
        <dc:type
           rdf:resource="http://purl.org/dc/dcmitype/StillImage" />
        <dc:title></dc:title>
      </cc:Work>
    </rdf:RDF>
  </metadata>
  <g
     inkscape:label="Layer 1"
     inkscape:groupmode="layer"
     id="layer1"
     transform="translate(0,-272.12915)">
    <g
       id="g69"
       transform="matrix(0.05482136,0,0,0.05528838,-6.3697991,274.16673)">
      <g
         id="g12">
	<g
   id="g10">
		<path
   style="fill:#3aa6f1;fill-opacity:1;stroke-width:0.09408063"
   d="m -124.75391,135.02344 v 26.38476 c 62.505252,-9.55773 23.67145,36.80023 34.849613,50.00782 2.446096,2.44609 5.834431,3.98828 9.597656,3.98828 3.763226,0 7.149608,-1.50456 9.595703,-3.98828 19.060069,-24.82174 -21.266831,-33.45917 -11.938336,-46.43639 9.573706,-13.31835 37.631977,-15.32071 49.077008,-3.57143 14.500523,14.88599 -23.527817,44.4536 -6.154296,62.03907 2.896459,2.89647 6.907191,4.72265 11.363281,4.72265 4.456094,0 8.466818,-1.78158 11.363281,-4.72265 2.896459,-2.89641 4.421449,-7.27244 4.722656,-11.36329 3.2598007,-19.67233 -21.506914,-37.27758 -10.626953,-50.67578 23.09097429,-28.43552 83.33079,-25.22593 109.890625,0 11.553346,10.97311 -11.634011,33.47138 2.460938,47.73828 2.053965,2.05399 4.896691,3.34961 8.05664,3.34961 14.465734,-0.97442 8.660014,-12.2047 5.347284,-19.48942 -35.910795,-73.36418 110.53278,-57.46348 140.85389,-31.59847 9.96218,11.56357 -9.79601,27.05623 -6.77539,45.28516 0.25437,3.45475 1.54218,7.15158 3.98828,9.59766 2.4461,2.48375 5.83248,3.98828 9.5957,3.98828 3.76322,0 7.14961,-1.54217 9.59571,-3.98828 15.74464,-15.93672 -14.57485,-41.72306 -1.85157,-54.88282 19.62208,-20.29523 84.68946,0 84.68946,0 v -26.38476 z"
   transform="matrix(4.8293651,0,0,4.8293651,718.6741,-688.93133)"
   id="path8"
   inkscape:connector-curvature="0"
   sodipodi:nodetypes="cccscaacsccaaccccccscaccc" />

	</g>

</g>
      <g
         id="g14">
</g>
      <g
         id="g16">
</g>
      <g
         id="g18">
</g>
      <g
         id="g20">
</g>
      <g
         id="g22">
</g>
      <g
         id="g24">
</g>
      <g
         id="g26">
</g>
      <g
         id="g28">
</g>
      <g
         id="g30">
</g>
      <g
         id="g32">
</g>
      <g
         id="g34">
</g>
      <g
         id="g36">
</g>
      <g
         id="g38">
</g>
      <g
         id="g40">
</g>
      <g
         id="g42">
</g>
    </g>
  </g>
</svg>
