<?xml version="1.0" encoding="UTF-8" standalone="no"?>
<!-- Created with Inkscape (http://www.inkscape.org/) -->

<svg
   xmlns:dc="http://purl.org/dc/elements/1.1/"
   xmlns:cc="http://creativecommons.org/ns#"
   xmlns:rdf="http://www.w3.org/1999/02/22-rdf-syntax-ns#"
   xmlns:svg="http://www.w3.org/2000/svg"
   xmlns="http://www.w3.org/2000/svg"
   xmlns:sodipodi="http://sodipodi.sourceforge.net/DTD/sodipodi-0.dtd"
   xmlns:inkscape="http://www.inkscape.org/namespaces/inkscape"
   width="332"
   height="14"
   viewBox="0 0 87.841664 3.7041667"
   version="1.1"
   id="svg8"
   inkscape:version="0.92.0 r15299"
   sodipodi:docname="wave1.svg">
  <defs
     id="defs2" />
  <sodipodi:namedview
     id="base"
     pagecolor="#ffffff"
     bordercolor="#666666"
     borderopacity="1.0"
     inkscape:pageopacity="0.0"
     inkscape:pageshadow="2"
     inkscape:zoom="3.2127948"
     inkscape:cx="157.5838"
     inkscape:cy="47.47717"
     inkscape:document-units="mm"
     inkscape:current-layer="layer1"
     showgrid="false"
     inkscape:window-width="1920"
     inkscape:window-height="1017"
     inkscape:window-x="-8"
     inkscape:window-y="-8"
     inkscape:window-maximized="1"
     units="px"
     inkscape:showpageshadow="false" />
  <metadata
     id="metadata5">
    <rdf:RDF>
      <cc:Work
         rdf:about="">
        <dc:format>image/svg+xml</dc:format>
        <dc:type
           rdf:resource="http://purl.org/dc/dcmitype/StillImage" />
        <dc:title></dc:title>
      </cc:Work>
    </rdf:RDF>
  </metadata>
  <g
     inkscape:label="Layer 1"
     inkscape:groupmode="layer"
     id="layer1"
     transform="translate(0,-293.2958)">
    <path
       style="fill:#3aa6f1;fill-opacity:1;stroke:none;stroke-width:0.23410693"
       d="m 0,294.12093 c 0,0 8.5132178,2.23666 12.854884,2.13278 3.833366,-0.0917 7.414112,-2.48906 11.248019,-2.42374 3.312145,0.0564 6.339112,2.6898 9.641156,2.42374 2.033063,-0.16382 3.584687,-2.39102 5.624002,-2.42374 2.204528,-0.0354 3.960171,2.26951 6.15963,2.42374 3.844821,0.26962 7.394022,-2.72648 11.24802,-2.69305 3.594021,0.0313 6.85259,2.81811 10.444599,2.69305 2.404923,-0.0838 4.445772,-2.27514 6.852127,-2.28512 1.698719,-0.007 3.15656,1.44076 4.8502,1.57292 3.001055,0.23417 8.91903,-1.42058 8.91903,-1.42058 v 2.87904 H 0 Z"
       id="rect6368"
       inkscape:connector-curvature="0"
       sodipodi:nodetypes="caaaaaaaaacccc" />
  </g>
</svg>
