<?xml version="1.0" encoding="UTF-8" standalone="no"?>
<!-- Created with Inkscape (http://www.inkscape.org/) -->

<svg
   xmlns:dc="http://purl.org/dc/elements/1.1/"
   xmlns:cc="http://creativecommons.org/ns#"
   xmlns:rdf="http://www.w3.org/1999/02/22-rdf-syntax-ns#"
   xmlns:svg="http://www.w3.org/2000/svg"
   xmlns="http://www.w3.org/2000/svg"
   xmlns:sodipodi="http://sodipodi.sourceforge.net/DTD/sodipodi-0.dtd"
   xmlns:inkscape="http://www.inkscape.org/namespaces/inkscape"
   width="390"
   height="85"
   viewBox="0 0 103.1875 22.489584"
   version="1.1"
   id="svg8"
   inkscape:version="0.92.0 r15299"
   sodipodi:docname="wave2.svg">
  <defs
     id="defs2" />
  <sodipodi:namedview
     id="base"
     pagecolor="#ffffff"
     bordercolor="#666666"
     borderopacity="1.0"
     inkscape:pageopacity="0.0"
     inkscape:pageshadow="2"
     inkscape:zoom="2.8"
     inkscape:cx="149.29767"
     inkscape:cy="105.57083"
     inkscape:document-units="mm"
     inkscape:current-layer="layer1"
     showgrid="false"
     inkscape:window-width="1920"
     inkscape:window-height="1017"
     inkscape:window-x="-8"
     inkscape:window-y="-8"
     inkscape:window-maximized="1"
     units="px"
     inkscape:showpageshadow="false" />
  <metadata
     id="metadata5">
    <rdf:RDF>
      <cc:Work
         rdf:about="">
        <dc:format>image/svg+xml</dc:format>
        <dc:type
           rdf:resource="http://purl.org/dc/dcmitype/StillImage" />
        <dc:title></dc:title>
      </cc:Work>
    </rdf:RDF>
  </metadata>
  <g
     inkscape:label="Layer 1"
     inkscape:groupmode="layer"
     id="layer1"
     transform="translate(0,-274.51039)">
    <path
       style="fill:#3aa6f1;fill-opacity:1;stroke:none;stroke-width:0.26218238px;stroke-linecap:butt;stroke-linejoin:miter;stroke-opacity:1"
       d="m 0,291.78006 c 0,0 3.1081877,-2.92777 5.0744433,-3.02037 6.3783547,-0.3004 11.0186267,8.85607 17.3090167,8.20736 9.74297,-1.00477 15.336016,-12.89142 24.71045,-13.59122 10.092171,-0.75337 19.502405,10.66834 28.479924,10.51995 5.580021,-0.0923 11.847304,-8.5381 17.865848,-12.02356 5.336582,-3.0905 9.747818,-0.2049 9.747818,-0.2049 v -7.04436 c 0,0 -23.764072,12.84615 -36.705533,12.66254 -8.138324,-0.11546 -14.718029,-9.0147 -22.847326,-8.61455 -5.911318,0.29097 -10.040277,7.17394 -15.918221,7.86547 -4.4517,0.52374 -8.627106,-3.0553 -13.10912,-2.99638 C 9.5811198,283.60611 0,287.2855 0,287.2855 Z"
       id="path6382"
       inkscape:connector-curvature="0"
       sodipodi:nodetypes="casassccaaaacc" />
  </g>
</svg>
